<?xml version="1.0" encoding="UTF-8" standalone="no"?> <!-- Created with Vectornator for iOS (http://vectornator.io/) --><!DOCTYPE svg PUBLIC "-//W3C//DTD SVG 1.1//EN" "http://www.w3.org/Graphics/SVG/1.1/DTD/svg11.dtd">
<svg style="fill-rule:evenodd;clip-rule:evenodd;stroke-linecap:round;stroke-linejoin:round;" xmlns:vectornator="http://vectornator.io" xmlns:xlink="http://www.w3.org/1999/xlink" xmlns="http://www.w3.org/2000/svg" xml:space="preserve" version="1.1" viewBox="0 0 437.749 439.6">
<metadata>
<vectornator:setting key="DynamicGuides" value="1"/>
<vectornator:setting key="Units" value="Points"/>
<vectornator:setting key="GuidesVisible" value="1"/>
<vectornator:setting key="RulersVisible" value="1"/>
<vectornator:setting key="SnapToGuides" value="1"/>
<vectornator:setting key="GridSpacing" value="36"/>
</metadata>
<defs>
<linearGradient y1="258.193" id="LinearGradient" x1="43.3452" y2="258.193" x2="467.346" gradientUnits="userSpaceOnUse" gradientTransform="matrix(0.6278 0.7783 -0.7783 0.6278 259.519 -141.051)">
<stop stop-color="#ffffff" offset="0"/>
<stop stop-color="#eeeeee" offset="0.5368"/>
<stop stop-color="#e5e5e5" offset="1"/>
</linearGradient>
<linearGradient y1="90.8949" id="LinearGradient_2" x1="128.632" y2="422.372" x2="384.02" gradientUnits="userSpaceOnUse" gradientTransform="matrix(1 0 0 1 -26.6238 -22.8315)">
<stop stop-color="#ff5e4e" offset="0"/>
<stop stop-color="#ff5c6d" offset="0.249"/>
<stop stop-color="#ff658c" offset="0.3765"/>
<stop stop-color="#ca7fb2" offset="0.497"/>
<stop stop-color="#9d6cff" offset="0.6267"/>
<stop stop-opacity="0.9176" stop-color="#2cbcfc" offset="0.7628"/>
<stop stop-color="#00c7ff" offset="1"/>
</linearGradient>
</defs>
<g id="Untitled" vectornator:layerName="Untitled">
<path d="M95.4697+392.113C0.702724+323.637-20.8713+190.981+47.2817+95.8135C115.431+0.648508+247.509-20.9895+342.278+47.4865C437.045+115.96+458.62+248.617+390.471+343.786C322.317+438.951+190.243+460.589+95.4697+392.113Z" opacity="1" fill="url(#LinearGradient)"/>
<path d="M304.002+336.521C317.386+332.596+326.836+323.076+330.703+309.629L331.844+305.677L331.994+199.662C332.105+120.269+331.998+93.1535+331.557+91.6735C331.093+90.1045+330.357+88.7885+329.394+87.7485C327.977+86.8755+326.274+86.4155+324.344+86.4185C323.014+86.4185+318.393+87.0595+314.083+87.8435C295.014+91.3155+182.615+113.701+180.695+114.411C177.725+115.509+174.783+118.118+173.387+120.887L172.204+123.233C172.204+123.233+171.645+289.404+170.784+291.274C169.475+294.121+166.568+296.818+163.888+297.677C162.618+298.086+157.599+299.212+152.727+300.18C130.175+304.668+121.8+307.901+114.715+314.857C110.691+318.806+107.711+324.198+106.423+329.855C105.191+335.263+105.603+343.355+107.358+348.276C109.197+353.422+112.157+357.817+116.027+361.275C119.545+363.986+123.698+366.004+128.367+367.202C138.69+369.845+158.017+366.905+167.897+361.19C172.029+358.799+177.344+353.787+180.108+349.664C181.204+348.031+182.848+344.747+183.769+342.36C186.987+334.002+187.088+185.139+187.499+183.264C188.197+180.082+190.372+177.753+193.369+176.962C196.07+176.253+304.299+154.855+307.346+154.428C310.026+154.056+312.556+154.919+313.938+156.621C314.758+157.061+315.45+157.654+315.935+158.384C316.814+159.693+316.867+162.281+316.998+209.412C317.148+263.659+317.215+262.387+314.266+265.811C312.12+268.3+309.444+269.265+298.443+271.509C281.706+274.926+275.979+276.549+269.568+279.676C261.565+283.587+257.12+287.87+253.685+294.984C251.256+300.017+250.349+303.789+250.356+308.797C250.37+317.756+253.461+324.753+260.431+331.604C261.074+332.235+261.704+332.822+262.34+333.374C265.851+336.089+269.432+337.726+273.934+338.763C280.724+340.326+294.544+339.297+304.002+336.521Z" opacity="1" fill="url(#LinearGradient_2)"/>
</g>
</svg>
